<svg width="47px" height="47px" class="spinner-round">
    <path d="M4.7852728,10.4210875 C2.94111664,13.0552197 1.63777109,16.0946106 1.03753956,19.3768556 L5.16638971,19.3768556 C5.6429615,17.187554 6.50125243,15.139164 7.66768899,13.305305 L5.95572428,11.5922705 L4.7852728,10.4210875 L4.7852728,10.4210875 Z M10.4693048,4.74565615 C13.1274873,2.8908061 16.1965976,1.58674648 19.5100161,1 L19.5100161,4.99523934 C17.2710923,5.48797782 15.1803193,6.3808529 13.3166907,7.59482153 L11.6337339,5.91081293 L10.4693048,4.74565615 L10.4693048,4.74565615 Z M42.2426309,36.5388386 C44.1112782,33.8575016 45.4206461,30.7581504 46,27.4117269 L41.9441211,27.4117269 C41.4527945,29.6618926 40.5583692,31.762911 39.3404412,33.6349356 L41.0332347,35.3287869 L42.2425306,36.5388386 L42.2426309,36.5388386 Z M36.5707441,42.2264227 C33.9167773,44.0867967 30.8509793,45.3972842 27.5398693,45.9911616 L27.5398693,41.7960549 C29.7376402,41.3202901 31.7936841,40.4593536 33.6336246,39.287568 L35.3554258,41.0104453 L36.5707441,42.2265231 L36.5707441,42.2264227 Z M4.71179965,36.4731535 C2.86744274,33.8069823 1.57463637,30.7309322 1,27.4118273 L5.16889904,27.4118273 C5.64828128,29.6073559 6.51159087,31.661069 7.68465205,33.4984432 L5.95572428,35.2284515 L4.71179965,36.4731535 L4.71179965,36.4731535 Z M10.3640133,42.180423 C13.0462854,44.0745435 16.1527345,45.40552 19.5101165,46 L19.5101165,41.7821947 C17.2817319,41.2916658 15.2000928,40.4048169 13.3430889,39.1995862 L11.6337339,40.9100094 L10.3640133,42.1805235 L10.3640133,42.180423 Z M42.1688567,10.3557038 C44.0373031,13.0048008 45.357411,16.0674929 45.9626612,19.3768556 L41.9469316,19.3768556 C41.4585158,17.1328164 40.5692095,15.0369202 39.3580065,13.1684109 L41.0335358,11.4918346 L42.168957,10.3557038 L42.1688567,10.3557038 Z M36.4651516,4.69995782 C33.8355754,2.87865336 30.8071162,1.59488179 27.5400701,1.00883836 L27.5400701,4.98117831 C29.7484805,5.45915272 31.8137587,6.3260149 33.6604242,7.50643794 L35.3555262,5.8102766 L36.4651516,4.69995782 L36.4651516,4.69995782 Z" fill="#A2A2A2"></path>
</svg>
