<svg class="spinner-xsolla" width="56" height="55">
    <path class="spinner-xsolla-x" d="M21.03 5.042l-2.112-2.156-3.657 3.695-3.657-3.695-2.112 2.156 3.659 3.673-3.659 3.696 2.112 2.157 3.657-3.697 3.657 3.697 2.112-2.157-3.648-3.696 3.648-3.673z" fill="#F2542D"></path>
    <path class="spinner-xsolla-s" d="M41.232 6.896l2.941-2.974-2.134-2.132-2.92 2.973-.005-.008-2.134 2.135.005.008-.005.005 3.792 3.82-2.915 2.947 2.112 2.156 5.06-5.111-3.798-3.816.001-.001z" fill="#FCCA20"></path>
    <path class="spinner-xsolla-o" d="M48.066 29.159c-1.536 0-2.761 1.263-2.761 2.79 0 1.524 1.226 2.765 2.761 2.765 1.509 0 2.736-1.242 2.736-2.765 0-1.526-1.227-2.79-2.736-2.79m0 8.593c-3.179 0-5.771-2.594-5.771-5.804 0-3.213 2.592-5.808 5.771-5.808 3.155 0 5.745 2.594 5.745 5.808 0 3.21-2.589 5.804-5.745 5.804" fill="#8C3EA4"></path>
    <path class="spinner-xsolla-l" d="M24.389 42.323h2.99v10.437h-2.99v-10.437zm4.334 0h2.989v10.437h-2.989v-10.437z" fill="#B5DC20"></path>
    <path class="spinner-xsolla-a" d="M7.796 31.898l1.404 2.457h-2.835l1.431-2.457h-.001zm-.001-5.757l-6.363 11.102h12.703l-6.341-11.102z" fill="#66CCDA"></path>
</svg>
